<svg version="1.1" id="Capa_1" xmlns="http://www.w3.org/2000/svg" viewBox="0 0 56 56" xml:space="preserve">
  <style>
    path{fill:#000}@media (prefers-color-scheme:dark){path{fill:#fff}}
  </style>
  <path d="M47.5 0h-39A8.5 8.5 0 0 0 0 8.5v39C0 52.2 3.8 56 8.5 56h39c4.7 0 8.5-3.8 8.5-8.5v-39C56 3.8 52.2 0 47.5 0zM54 47.5c0 3.6-2.9 6.5-6.5 6.5h-39A6.5 6.5 0 0 1 2 47.5v-17l6.2-6.3a5 5 0 0 0 5.6 0l10 10a5 5 0 1 0 8.3 0L46 20.4V27a1 1 0 1 0 2 0V17H38a1 1 0 1 0 0 2h6.6L30.8 32.8a5 5 0 0 0-5.6 0l-10-10a5 5 0 1 0-8.3 0L2 27.6V8.5C2 4.9 4.9 2 8.5 2h39C51.1 2 54 4.9 54 8.5v39zM11 23a3 3 0 1 1 0-6 3 3 0 0 1 0 6zm20 14a3 3 0 1 1-6 0 3 3 0 0 1 6 0z"/>
</svg>